<?xml version="1.0" standalone="no"?>
<!DOCTYPE svg PUBLIC "-//W3C//DTD SVG 20010904//EN"
 "http://www.w3.org/TR/2001/REC-SVG-20010904/DTD/svg10.dtd">
<svg version="1.0" xmlns="http://www.w3.org/2000/svg"
 width="156.000000pt" height="123.000000pt" viewBox="0 0 156.000000 123.000000"
 preserveAspectRatio="xMidYMid meet">
<metadata>
Created by potrace 1.13, written by Peter Selinger 2001-2015
</metadata>
<g transform="translate(0.000000,123.000000) scale(0.100000,-0.100000)"
fill="#000000" stroke="none">
<path d="M1148 1171 c-3 -9 -45 -14 -227 -26 -36 -3 -74 -8 -85 -11 -12 -4
-30 -9 -41 -10 -73 -12 -95 -16 -133 -26 -24 -6 -46 -17 -49 -25 -3 -7 -9 -13
-15 -13 -5 0 -6 5 -2 11 5 8 0 10 -17 6 -13 -4 -49 -13 -79 -20 -30 -7 -62
-16 -70 -19 -36 -13 -216 -51 -244 -51 -17 0 -49 5 -70 11 -48 14 -54 10 -27
-17 12 -12 21 -26 21 -32 0 -6 9 -9 19 -6 14 3 18 1 14 -10 -5 -13 -2 -13 15
-4 18 10 21 9 16 -4 -4 -11 0 -15 16 -15 13 0 19 4 14 11 -4 7 1 7 16 -1 29
-15 155 -6 254 20 89 23 116 17 186 -39 60 -47 59 -76 -4 -140 -279 -285 -366
-369 -408 -391 -61 -32 -40 -49 25 -21 110 47 158 75 152 88 -2 8 0 11 6 8 5
-4 15 -2 22 3 7 5 28 19 48 30 93 52 115 68 170 124 21 20 39 35 41 32 8 -8
-1 -98 -14 -128 -6 -17 -20 -43 -31 -57 -17 -24 -18 -33 -8 -79 8 -35 8 -57 1
-70 -13 -25 42 -134 99 -198 34 -37 42 -41 70 -36 36 7 36 7 16 38 -8 12 -15
38 -14 57 1 19 -1 43 -4 54 -2 11 2 32 9 47 13 25 12 28 -8 42 -12 9 -17 16
-10 16 6 0 12 9 12 21 0 11 4 18 9 15 14 -9 24 129 17 253 -5 96 -3 111 10
111 9 0 24 -10 35 -22 16 -20 20 -21 29 -8 9 14 11 13 14 -9 2 -15 68 -71 83
-71 7 0 13 -7 13 -15 0 -8 7 -15 15 -15 8 0 15 -4 15 -8 0 -4 34 -32 77 -62
42 -30 85 -65 96 -77 15 -17 24 -20 33 -12 9 8 11 6 8 -8 -4 -13 6 -28 30 -47
20 -15 36 -32 36 -38 0 -12 79 -97 101 -109 11 -5 23 -3 35 7 18 14 18 15 -6
8 l-25 -7 24 20 c23 19 23 20 6 52 -14 28 -15 41 -6 75 20 80 -36 149 -186
226 -34 18 -70 30 -78 26 -9 -3 -14 -2 -11 3 3 4 -13 14 -35 21 -23 8 -43 19
-46 26 -4 12 -49 29 -65 26 -5 -1 -8 2 -8 8 0 5 -5 10 -11 10 -6 0 -38 12 -71
27 -50 22 -61 24 -69 12 -7 -12 -9 -11 -9 2 0 9 -7 19 -15 23 -14 5 -18 56 -4
56 8 0 73 103 71 112 -1 4 7 9 17 13 10 3 24 18 32 33 14 27 27 41 65 68 19
13 29 13 95 -2 95 -20 165 -43 207 -66 35 -19 77 -24 86 -9 4 5 0 12 -6 14 -7
3 -4 6 7 6 15 1 21 8 20 25 0 47 -67 95 -180 130 -50 16 -132 20 -137 7z
m-258 -117 c0 -20 -68 -114 -83 -114 -6 0 -20 -8 -31 -17 -12 -10 -15 -11 -8
-3 6 8 12 17 12 21 0 8 -79 26 -135 31 -26 3 -21 6 33 22 34 11 62 24 62 28 0
5 4 7 10 3 11 -7 108 23 116 36 9 15 24 10 24 -7z m-290 -8 c0 -3 -4 -8 -10
-11 -5 -3 -10 -1 -10 4 0 6 5 11 10 11 6 0 10 -2 10 -4z m7 -82 c-3 -3 -12 -4
-19 -1 -8 3 -5 6 6 6 11 1 17 -2 13 -5z m97 -29 c-4 -8 -8 -15 -10 -15 -2 0
-4 7 -4 15 0 8 4 15 10 15 5 0 7 -7 4 -15z m-20 -202 c-10 -7 -25 -13 -33 -13
-12 0 -11 3 3 13 10 8 25 14 34 14 11 0 11 -3 -4 -14z m436 -93 c0 -5 -2 -10
-4 -10 -3 0 -8 5 -11 10 -3 6 -1 10 4 10 6 0 11 -4 11 -10z"/>
</g>
</svg>
