<?xml version="1.0" standalone="no"?>
<!DOCTYPE svg PUBLIC "-//W3C//DTD SVG 20010904//EN"
 "http://www.w3.org/TR/2001/REC-SVG-20010904/DTD/svg10.dtd">
<svg version="1.0" xmlns="http://www.w3.org/2000/svg"
 width="213.000000pt" height="195.000000pt" viewBox="0 0 213.000000 195.000000"
 preserveAspectRatio="xMidYMid meet">
<metadata>
Created by potrace 1.13, written by Peter Selinger 2001-2015
</metadata>
<g transform="translate(0.000000,195.000000) scale(0.100000,-0.100000)"
fill="#000000" stroke="none">
<path d="M1291 1853 c-28 -6 -71 -32 -71 -43 0 -4 14 -7 32 -6 28 1 35 -4 49
-34 21 -44 40 -188 35 -255 -3 -27 -8 -102 -11 -165 -6 -118 -29 -298 -45
-359 -5 -18 -23 -45 -39 -60 -34 -30 -51 -68 -51 -112 0 -27 3 -29 35 -29 19
0 35 4 35 10 0 5 17 12 38 16 20 4 65 20 98 35 62 27 84 25 84 -8 0 -29 -34
-111 -61 -144 -25 -32 -27 -38 -14 -49 8 -7 15 -17 15 -24 0 -6 -13 6 -30 26
-25 30 -41 38 -100 52 -38 8 -77 13 -85 10 -23 -9 -18 -31 10 -38 16 -4 25
-13 25 -27 l0 -20 -22 21 c-16 15 -24 17 -30 8 -16 -26 46 -50 69 -27 8 8 13
7 18 -1 4 -7 2 -16 -5 -20 -8 -5 -3 -10 14 -14 39 -10 32 -29 -31 -86 -123
-113 -257 -192 -345 -207 -27 -4 -35 -9 -26 -14 14 -9 136 -1 153 10 6 4 28 9
50 10 22 2 45 7 51 12 6 5 19 7 27 3 17 -6 155 80 164 103 3 7 11 13 18 13 16
0 85 65 85 80 0 6 10 1 23 -11 12 -11 40 -33 62 -47 188 -119 251 -170 428
-344 49 -49 91 -88 93 -88 9 0 3 50 -11 89 -8 24 -12 55 -8 73 5 25 3 30 -9
26 -11 -5 -14 0 -10 18 3 18 1 23 -10 19 -11 -4 -18 9 -28 50 -11 47 -21 62
-54 89 -48 38 -143 96 -157 96 -5 0 -26 11 -47 24 -21 13 -65 37 -99 54 -33
17 -68 38 -77 47 -15 15 -15 19 4 46 46 63 68 233 33 246 -10 4 -24 13 -31 20
-18 17 -98 11 -140 -11 -30 -16 -58 -14 -48 3 6 9 17 58 20 86 5 48 28 104 44
109 9 3 46 6 82 7 74 0 170 18 170 31 0 4 9 8 19 8 56 0 66 31 26 75 -53 57
-153 37 -249 -50 -58 -53 -69 -48 -61 28 17 146 20 284 7 367 -7 47 -15 108
-18 135 -4 28 -13 57 -20 66 -8 9 -12 24 -8 33 7 18 -12 47 -30 45 -6 -1 -22
-4 -35 -6z"/>
<path d="M775 1586 c-156 -71 -277 -136 -307 -163 -24 -21 -13 -36 22 -28 16
3 31 2 35 -4 3 -6 33 -11 66 -11 32 0 59 -4 59 -10 0 -22 -42 -118 -60 -137
-11 -12 -28 -36 -39 -54 -34 -55 -171 -189 -194 -189 -12 0 -27 -4 -33 -8 -34
-24 -47 -169 -14 -165 20 2 101 31 122 43 10 6 24 10 31 10 8 0 49 16 93 35
92 40 102 36 114 -40 8 -53 6 -56 -75 -120 -89 -70 -172 -154 -186 -187 -16
-40 4 -59 71 -66 56 -5 80 -27 80 -72 -1 -33 -25 -64 -44 -57 -24 9 -46 -32
-46 -86 0 -52 22 -107 43 -107 7 0 28 19 46 43 17 24 57 65 88 93 31 27 65 60
77 73 57 64 86 99 86 104 0 4 15 22 33 41 46 50 80 96 70 96 -5 0 -21 -15 -36
-33 -29 -36 -117 -104 -117 -89 0 33 25 122 34 122 14 0 52 60 48 77 -2 7 2
22 8 34 9 15 8 24 -2 37 -11 14 -11 15 5 9 12 -5 17 -3 15 5 -5 13 -20 22 -62
34 -25 8 -30 17 -47 83 -10 40 -16 77 -13 82 3 5 26 9 52 9 26 1 67 5 92 11
25 6 54 10 65 11 43 0 66 10 75 31 7 17 9 18 9 5 1 -21 10 -22 35 -3 24 18 15
60 -15 68 -13 3 -19 12 -17 24 2 13 -3 18 -22 18 -14 0 -39 12 -55 28 -30 27
-59 35 -69 18 -3 -4 -24 -11 -46 -15 -26 -4 -43 -13 -46 -24 -23 -71 -26 -74
-122 -118 -102 -48 -132 -47 -87 2 34 36 116 158 138 204 9 19 28 47 42 62 19
20 24 34 19 52 -8 32 6 39 86 41 169 6 195 85 54 162 -64 35 -111 41 -159 19z
m164 -535 c8 -5 9 -11 3 -15 -5 -3 -15 1 -22 9 -14 16 -3 20 19 6z m-489 -15
c0 -2 -7 -9 -15 -16 -13 -11 -14 -10 -9 4 5 14 24 23 24 12z m106 -53 c-10
-10 -19 5 -10 18 6 11 8 11 12 0 2 -7 1 -15 -2 -18z m234 -283 c0 -5 -4 -10
-10 -10 -5 0 -10 5 -10 10 0 6 5 10 10 10 6 0 10 -4 10 -10z m7 -52 c-3 -8 -6
-5 -6 6 -1 11 2 17 5 13 3 -3 4 -12 1 -19z m-142 -35 c-4 -21 -9 -45 -9 -54
-1 -9 -11 -28 -22 -44 l-21 -28 -66 13 c-79 15 -96 29 -74 64 15 22 35 32 142
70 57 21 58 20 50 -21z"/>
<path d="M1433 1474 c-6 -16 15 -37 29 -28 4 3 8 14 8 25 0 23 -28 26 -37 3z"/>
<path d="M1626 1434 c-48 -15 -65 -24 -55 -30 26 -17 84 -36 122 -41 20 -3 40
-9 43 -14 3 -5 21 -9 40 -9 20 0 44 -5 54 -10 15 -8 24 -6 40 10 17 17 18 23
8 46 -28 60 -143 82 -252 48z"/>
<path d="M1065 719 c-86 -8 -205 -30 -205 -38 0 -3 30 -6 67 -6 68 -1 129 -7
191 -20 17 -4 32 -4 33 1 0 5 3 21 5 35 5 33 -3 36 -91 28z"/>
</g>
</svg>
